<svg width="512" height="512" viewBox="0 0 512 512" fill="none" xmlns="http://www.w3.org/2000/svg">
  <rect width="512" height="512" rx="80" fill="url(#gradient)"/>
  <g transform="translate(128, 100)">
    <!-- Lotus petals -->
    <path d="M128 220C110 200 80 190 50 200C20 210 10 240 30 260C50 280 80 270 100 250" fill="#FFB347" opacity="0.8"/>
    <path d="M128 220C146 200 176 190 206 200C236 210 246 240 226 260C206 280 176 270 156 250" fill="#FFB347" opacity="0.8"/>
    <path d="M128 220C128 180 138 150 168 130C198 110 228 120 238 150C248 180 238 210 208 220" fill="#FF7F50" opacity="0.9"/>
    <path d="M128 220C128 260 138 290 168 310C198 330 228 320 238 290C248 260 238 230 208 220" fill="#FF7F50" opacity="0.9"/>
    <path d="M128 220C90 220 60 210 40 180C20 150 30 120 60 110C90 100 120 110 128 140" fill="#FFB347" opacity="0.8"/>
    <path d="M128 220C166 220 196 210 216 180C236 150 226 120 196 110C166 100 136 110 128 140" fill="#FFB347" opacity="0.8"/>
    
    <!-- Center circle -->
    <circle cx="128" cy="220" r="35" fill="#FFF" stroke="#FF7F50" stroke-width="3"/>
    
    <!-- Om symbol simplified -->
    <text x="128" y="235" text-anchor="middle" font-family="serif" font-size="24" fill="#FF7F50" font-weight="bold">🕉</text>
  </g>
  
  <defs>
    <linearGradient id="gradient" x1="0%" y1="0%" x2="100%" y2="100%">
      <stop offset="0%" style="stop-color:#FF9500;stop-opacity:1" />
      <stop offset="100%" style="stop-color:#FF7F50;stop-opacity:1" />
    </linearGradient>
  </defs>
</svg>